<svg width="244" height="240" viewBox="0 0 244 240" fill="none" xmlns="http://www.w3.org/2000/svg">
<g clip-path="url(#clip0_3_2865)">
<path d="M119.753 188.073L109.895 187.299L108.802 201.212L118.659 201.986L119.753 188.073Z" fill="#B1B6BB"/>
<path d="M145.147 190.068L135.289 189.294L134.196 203.207L144.053 203.981L145.147 190.068Z" fill="#B1B6BB"/>
<path d="M54.2669 82.4113L113.284 9.70419L139.659 99.5671C150.091 135.107 119.047 169.021 82.7588 161.731C46.4705 154.44 30.9259 111.166 54.2669 82.4113Z" fill="#EEF2F5"/>
<path d="M178.075 67.4472L166.91 58.4042C150.257 45.0438 127.187 43.2311 108.652 53.8266L96.3082 61.0225C91.8993 63.5429 89.237 68.0982 88.8392 73.1609L83.255 144.231C82.588 152.719 84.3088 161.319 88.5555 168.698L98.6362 186.662L156.233 191.187L168.945 175.014C174.292 168.389 177.285 160.16 177.952 151.672L183.536 80.6016C183.934 75.5385 182.036 70.6249 178.075 67.4472ZM153.459 67.2638L120.721 64.6914C118.157 64.4899 117.397 61.0501 119.628 59.7702L119.893 59.5961C125.38 56.4593 131.612 55.0438 137.913 55.5388C144.214 56.0339 150.149 58.3923 155.079 62.3475L155.306 62.5759C157.311 64.1883 156.024 67.4653 153.459 67.2638Z" fill="#DCDFE5"/>
<path d="M175.519 83.2181L170.684 146.277C169.936 156.034 166.261 165.337 160.139 172.97L152.768 182.16L103.671 178.396L97.7867 168.19C92.8997 159.713 90.6855 149.958 91.4335 140.202L96.2678 77.1424C96.3296 76.3367 96.9224 75.6723 97.7154 75.5187L112.36 72.6882C128.375 69.5928 144.928 70.8614 160.285 76.3606L174.336 81.3926C175.096 81.6654 175.58 82.4127 175.519 83.2181Z" fill="white"/>
<path d="M131.687 180.503L124.683 179.953L122.926 202.321L129.929 202.872L131.687 180.503Z" fill="#4C94D6"/>
<path fill-rule="evenodd" clip-rule="evenodd" d="M174.41 99.6584L175.675 83.2516C175.737 82.4463 175.25 81.6989 174.485 81.4262L160.357 76.3942C144.916 70.8949 128.273 69.6263 112.169 72.7217L97.444 75.5522C96.6466 75.7059 96.0505 76.3702 95.9884 77.176L94.7715 92.9631L174.41 99.6584ZM166.94 161.892L92.4158 155.627C93.5085 160.018 95.2184 164.26 97.5156 168.223L103.432 178.43L152.799 182.194L160.211 173.004C162.959 169.596 165.216 165.857 166.94 161.892Z" fill="#4C94D6"/>
<path d="M133.335 107.021C133.776 106.39 134.735 106.473 135.061 107.171L150.209 139.577C150.535 140.274 149.984 141.063 149.217 140.996L113.579 137.912C112.812 137.846 112.404 136.974 112.845 136.343L133.335 107.021Z" fill="#4C94D6"/>
<path d="M151.126 118.344C151.894 118.407 152.305 119.277 151.867 119.91L131.508 149.323C131.069 149.956 130.11 149.877 129.781 149.181L114.489 116.843C114.16 116.147 114.707 115.356 115.474 115.419L151.126 118.344Z" fill="#4C94D6"/>
</g>
<defs>
<clipPath id="clip0_3_2865">
<rect width="227.131" height="222.853" fill="white" transform="translate(17.4565) rotate(4.49273)"/>
</clipPath>
</defs>
</svg>
