<svg width="182" height="198" viewBox="0 0 182 198" fill="none" xmlns="http://www.w3.org/2000/svg">
<path d="M55.9687 175.205H39.7091C32.8484 175.205 27.2666 169.624 27.2666 162.763V98.979H29.619V162.762C29.619 168.326 34.1457 172.852 39.7091 172.852H55.9687V175.205Z" fill="#D64C52"/>
<path d="M23.9134 97.2783H18.2817V105.226H23.9134V97.2783Z" fill="#B8B1BB"/>
<path d="M38.4208 97.2783H32.7891V105.226H38.4208V97.2783Z" fill="#B8B1BB"/>
<path d="M51.7664 26.1889L44.9824 21.553C34.9316 14.7102 21.7313 14.7102 11.6806 21.553L4.80361 26.1889C2.41291 27.8165 0.915039 30.5218 0.915039 33.4141V74.0146C0.915039 78.8632 2.45492 83.8033 5.19489 87.8032L11.8996 97.6869H44.8028L51.3814 87.8032C54.1219 83.8027 55.5363 78.8632 55.5363 74.0146V33.4141C55.5357 30.5218 54.1571 27.8165 51.7664 26.1889ZM37.6994 27.3102H18.9971C17.5323 27.3102 16.9473 25.3276 18.1573 24.5015L18.3002 24.3592C21.2754 22.3335 24.7507 21.2358 28.3504 21.2358C31.9496 21.2358 35.4248 22.3019 38.4001 24.3276L38.5392 24.5067C39.7493 25.3323 39.1648 27.3102 37.6994 27.3102Z" fill="#E5DCDF"/>
<path d="M181.084 167.622H156.914V197.54H181.084V167.622Z" fill="#F4D7C3"/>
<path d="M63.9114 167.622H39.7412V197.54H63.9114V167.622Z" fill="#F4D7C3"/>
<path d="M63.6766 108.191C50.0215 109.767 39.2549 121.191 39.2549 135.297V169.114H63.414V198H156.899V169.114H181.059V135.297C181.059 121.191 170.292 109.767 157.162 108.191H63.6766Z" fill="#8AA7BA"/>
<path d="M174.188 178.321H156.774V187.262H174.188V178.321Z" fill="#FCF5F0"/>
<path d="M77.6338 62.2672C82.0124 62.2672 85.5948 58.6848 85.5948 54.3063V46.6294C85.5948 42.2508 82.0124 38.6685 77.6338 38.6685C73.2552 38.6685 69.6729 42.2508 69.6729 46.6294V54.3057C69.6729 58.6848 73.2552 62.2672 77.6338 62.2672Z" fill="#F4BBA2"/>
<path d="M143.624 62.2672C139.245 62.2672 135.663 58.6848 135.663 54.3063V46.6294C135.663 42.2508 139.245 38.6685 143.624 38.6685C148.003 38.6685 151.585 42.2508 151.585 46.6294V54.3057C151.586 58.6848 148.003 62.2672 143.624 62.2672Z" fill="#F4BBA2"/>
<path d="M116.185 123.897H105.506C99.3595 123.897 94.377 118.914 94.377 112.768V57.5176H127.315V112.767C127.314 118.914 122.332 123.897 116.185 123.897Z" fill="#F4D7C3"/>
<path d="M144.391 62.4635C148.769 62.4635 152.352 58.8811 152.352 54.5025V46.8257C152.352 42.4471 148.769 38.8647 144.391 38.8647C140.012 38.8647 136.43 42.4471 136.43 46.8257V54.502C136.43 58.8811 140.012 62.4635 144.391 62.4635Z" fill="#F4BBA2"/>
<path d="M126.963 112.496V62.4985H93.875V96.0241L126.963 112.496Z" fill="#F4BBA2"/>
<path d="M110.845 94.9582C92.3411 94.9582 77.2012 79.8183 77.2012 61.3139V29.8655C77.2012 13.473 90.6132 0.0610352 107.006 0.0610352H114.685C131.078 0.0610352 144.49 13.473 144.49 29.8655V61.3139C144.49 79.8183 129.35 94.9582 110.845 94.9582Z" fill="#F4D7C3"/>
<path d="M110.845 68.9776C108.33 68.9776 106.271 66.9193 106.271 64.4036V57.5534C106.271 55.0377 108.33 52.9795 110.845 52.9795C113.361 52.9795 115.419 55.0377 115.419 57.5534V64.4036C115.419 66.9193 113.361 68.9776 110.845 68.9776Z" fill="#F4BBA2"/>
<path d="M110.845 80.606C107.54 80.606 104.441 79.3272 102.12 77.0063L102.863 76.2637C104.986 78.3871 107.821 79.5561 110.845 79.5561C113.87 79.5561 116.705 78.3871 118.828 76.2637L119.57 77.0063C117.249 79.3272 114.151 80.606 110.845 80.606Z" fill="#3A2F32"/>
<path d="M95.5235 50.4674C94.2205 50.4674 93.1543 49.4013 93.1543 48.0983V45.7979C93.1543 44.4949 94.2205 43.4287 95.5235 43.4287C96.8265 43.4287 97.8926 44.4949 97.8926 45.7979V48.0983C97.8926 49.4013 96.8265 50.4674 95.5235 50.4674Z" fill="#3A2F32"/>
<path d="M126.168 50.4674C127.471 50.4674 128.537 49.4013 128.537 48.0983V45.7979C128.537 44.4949 127.471 43.4287 126.168 43.4287C124.864 43.4287 123.798 44.4949 123.798 45.7979V48.0983C123.798 49.4013 124.864 50.4674 126.168 50.4674Z" fill="#3A2F32"/>
<path d="M114.992 0H107.253C90.7322 0 77.082 13.0207 77.082 29.5056V38.3395C123.661 37.5299 124.06 15.7592 124.06 15.7592C124.06 15.7592 124.719 34.7945 144.833 38.3379V29.5056C144.833 13.0207 131.513 0 114.992 0Z" fill="#7C5952"/>
<path d="M50.9541 35.5062V71.4776C50.9541 77.0426 49.274 82.4784 46.1343 87.0734L42.354 92.6059H14.3472L10.5668 87.0734C7.42666 82.4784 5.74707 77.0426 5.74707 71.4776V35.5062C5.74707 35.0467 6.05431 34.6439 6.49758 34.5225L14.6797 32.2805C23.6275 29.8288 33.0695 29.8283 42.0173 32.2794L50.2041 34.522C50.6469 34.6439 50.9541 35.0467 50.9541 35.5062Z" fill="#D64C52"/>
<path d="M44.5407 43.8794H12.1616V74.9633H44.5407V43.8794Z" fill="white"/>
<path d="M30.3516 92.605H26.3506V105.536H30.3516V92.605Z" fill="url(#paint0_linear_226_16501)"/>
<path d="M118.087 154.173L132.008 127.136L146.387 153.932C152.074 164.529 144.463 177.374 132.436 177.477C120.41 177.579 112.582 164.865 118.087 154.173Z" fill="#6DD98C"/>
<path d="M127.71 169.482L124.888 165.326L125.637 164.817L127.751 167.932L138.025 154.399L138.746 154.946L127.71 169.482Z" fill="#FCF5F0"/>
<path d="M132.41 174.381C125.16 174.443 119.211 168.594 119.149 161.344C119.087 154.093 124.936 148.144 132.186 148.082C139.437 148.021 145.386 153.869 145.448 161.12C145.509 168.37 139.661 174.319 132.41 174.381ZM132.194 148.987C125.442 149.045 119.996 154.585 120.054 161.336C120.111 168.088 125.651 173.534 132.403 173.476C139.154 173.419 144.6 167.879 144.543 161.128C144.485 154.376 138.946 148.93 132.194 148.987Z" fill="#FCF5F0"/>
<defs>
<linearGradient id="paint0_linear_226_16501" x1="29.3418" y1="172.876" x2="27.6936" y2="50.0871" gradientUnits="userSpaceOnUse">
<stop stop-color="#F38572"/>
<stop offset="0.4131" stop-color="#E2605F"/>
<stop offset="0.7824" stop-color="#D64551"/>
<stop offset="1" stop-color="#D23B4C"/>
</linearGradient>
</defs>
</svg>
