<svg width="375" height="269" viewBox="0 0 375 269" fill="none" xmlns="http://www.w3.org/2000/svg">
<path d="M280.169 222.622H255.999V252.54H280.169V222.622Z" fill="#F4D7C3"/>
<path d="M162.996 222.622H138.826V252.54H162.996V222.622Z" fill="#F4D7C3"/>
<path d="M162.761 163.191C149.106 164.767 138.34 176.191 138.34 190.297V224.114H162.499V253H255.984V224.114H280.143V190.297C280.143 176.191 269.377 164.767 256.247 163.191H162.761Z" fill="#AFC2D0"/>
<path d="M176.719 117.267C181.097 117.267 184.679 113.685 184.679 109.306V101.629C184.679 97.2508 181.097 93.6685 176.719 93.6685C172.34 93.6685 168.758 97.2508 168.758 101.629V109.306C168.758 113.685 172.34 117.267 176.719 117.267Z" fill="#F4BBA2"/>
<path d="M242.709 117.267C238.33 117.267 234.748 113.685 234.748 109.306V101.629C234.748 97.2508 238.33 93.6685 242.709 93.6685C247.088 93.6685 250.67 97.2508 250.67 101.629V109.306C250.671 113.685 247.088 117.267 242.709 117.267Z" fill="#F4BBA2"/>
<path d="M215.27 178.897H204.591C198.444 178.897 193.462 173.914 193.462 167.768V112.518H226.4V167.767C226.399 173.914 221.416 178.897 215.27 178.897Z" fill="#F4D7C3"/>
<path d="M242.08 151.899C256.205 151.899 258.361 96.278 258.361 82.1523C258.361 68.0267 252.108 56.5757 237.982 56.5757C223.857 56.5757 212.406 68.0267 212.406 82.1523C212.406 96.278 227.954 151.899 242.08 151.899Z" fill="#75544E"/>
<path d="M243.475 117.464C247.854 117.464 251.436 113.881 251.436 109.503V101.826C251.436 97.4471 247.854 93.8647 243.475 93.8647C239.097 93.8647 235.514 97.4471 235.514 101.826V109.502C235.514 113.881 239.097 117.464 243.475 117.464Z" fill="#F4BBA2"/>
<path d="M226.048 167.496V117.499H192.96V151.024L226.048 167.496Z" fill="#F4BBA2"/>
<path d="M209.93 149.958C191.426 149.958 176.286 134.818 176.286 116.314V84.8655C176.286 68.473 189.698 55.061 206.091 55.061H213.77C230.163 55.061 243.575 68.473 243.575 84.8655V116.314C243.575 134.818 228.435 149.958 209.93 149.958Z" fill="#F4D7C3"/>
<path d="M209.93 123.978C207.415 123.978 205.356 121.919 205.356 119.404V112.553C205.356 110.038 207.415 107.979 209.93 107.979C212.446 107.979 214.504 110.038 214.504 112.553V119.404C214.504 121.919 212.446 123.978 209.93 123.978Z" fill="#F4BBA2"/>
<path d="M209.93 135.606C206.625 135.606 203.527 134.327 201.205 132.006L201.948 131.264C204.071 133.387 206.906 134.556 209.93 134.556C212.955 134.556 215.79 133.387 217.913 131.264L218.656 132.006C216.334 134.327 213.236 135.606 209.93 135.606Z" fill="#3A2F32"/>
<path d="M194.608 105.467C193.305 105.467 192.239 104.401 192.239 103.098V100.798C192.239 99.4949 193.305 98.4287 194.608 98.4287C195.911 98.4287 196.977 99.4949 196.977 100.798V103.098C196.977 104.401 195.911 105.467 194.608 105.467Z" fill="#3A2F32"/>
<path d="M225.252 105.467C226.555 105.467 227.622 104.401 227.622 103.098V100.798C227.622 99.4949 226.555 98.4287 225.252 98.4287C223.949 98.4287 222.883 99.4949 222.883 100.798V103.098C222.883 104.401 223.949 105.467 225.252 105.467Z" fill="#3A2F32"/>
<path d="M214.077 55H206.338C189.817 55 176.167 68.0207 176.167 84.5056V93.3395C222.746 92.5299 223.145 70.7592 223.145 70.7592C223.145 70.7592 223.804 89.7945 243.918 93.3379V84.5056C243.918 68.0207 230.598 55 214.077 55Z" fill="#7C5952"/>
<path d="M214.087 214.173L228.008 187.136L242.387 213.932C248.074 224.529 240.463 237.374 228.436 237.477C216.41 237.579 208.582 224.865 214.087 214.173Z" fill="#6DD98C"/>
<path d="M228.41 234.381C221.16 234.443 215.211 228.594 215.149 221.344C215.087 214.093 220.936 208.144 228.186 208.082C235.437 208.021 241.386 213.869 241.448 221.12C241.509 228.37 235.661 234.319 228.41 234.381ZM228.194 208.988C221.442 209.045 215.996 214.585 216.054 221.336C216.111 228.088 221.651 233.534 228.403 233.476C235.154 233.419 240.6 227.879 240.543 221.128C240.485 214.376 234.946 208.93 228.194 208.988Z" fill="#FCF5F0"/>
<path d="M155.414 229H138V237.94H155.414V229Z" fill="#FCF5F0"/>
<path d="M138.053 233.784H121.794C114.933 233.784 109.351 228.203 109.351 221.342V157.558H111.704V221.341C111.704 226.905 116.23 231.431 121.794 231.431H138.053V233.784Z" fill="#D64C52"/>
<path d="M105.998 155.857H100.367V163.805H105.998V155.857Z" fill="#B8B1BB"/>
<path d="M120.505 155.857H114.874V163.805H120.505V155.857Z" fill="#B8B1BB"/>
<path d="M133.851 84.768L127.067 80.1321C117.017 73.2893 103.816 73.2893 93.7655 80.1321L86.8886 84.768C84.4979 86.3956 83 89.1009 83 91.9932V132.594C83 137.442 84.5399 142.382 87.2798 146.382L93.9845 156.266H126.888L133.466 146.382C136.207 142.382 137.621 137.442 137.621 132.594V91.9932C137.621 89.1009 136.242 86.3956 133.851 84.768ZM119.784 85.8893H101.082C99.6173 85.8893 99.0322 83.9067 100.242 83.0806L100.385 82.9383C103.36 80.9126 106.836 79.8149 110.435 79.8149C114.035 79.8149 117.51 80.881 120.485 82.9067L120.624 83.0858C121.834 83.9114 121.25 85.8893 119.784 85.8893Z" fill="#E5DCDF"/>
<path d="M133.039 94.0853V130.057C133.039 135.622 131.359 141.058 128.22 145.653L124.439 151.185H96.4324L92.652 145.653C89.5119 141.058 87.8323 135.622 87.8323 130.057V94.0853C87.8323 93.6258 88.1395 93.223 88.5828 93.1016L96.7649 90.8596C105.713 88.4079 115.155 88.4074 124.103 90.8585L132.289 93.1011C132.732 93.223 133.039 93.6258 133.039 94.0853Z" fill="#D64C52"/>
<path d="M126.626 102.458H94.2466V133.542H126.626V102.458Z" fill="white"/>
<path d="M112.436 151.184H108.435V164.115H112.436V151.184Z" fill="url(#paint0_linear_381_700)"/>
<defs>
<linearGradient id="paint0_linear_381_700" x1="111.426" y1="231.455" x2="109.778" y2="108.666" gradientUnits="userSpaceOnUse">
<stop stop-color="#F38572"/>
<stop offset="0.4131" stop-color="#E2605F"/>
<stop offset="0.7824" stop-color="#D64551"/>
<stop offset="1" stop-color="#D23B4C"/>
</linearGradient>
</defs>
</svg>
