<svg width="182" height="198" viewBox="0 0 182 198" fill="none" xmlns="http://www.w3.org/2000/svg">
<path d="M55.9687 175.205H39.7091C32.8484 175.205 27.2666 169.624 27.2666 162.763V98.979H29.619V162.762C29.619 168.326 34.1457 172.852 39.7091 172.852H55.9687V175.205Z" fill="#D64C52"/>
<path d="M23.9137 97.2783H18.282V105.226H23.9137V97.2783Z" fill="#B8B1BB"/>
<path d="M38.4208 97.2783H32.7891V105.226H38.4208V97.2783Z" fill="#B8B1BB"/>
<path d="M51.7666 26.1889L44.9826 21.553C34.9319 14.7102 21.7315 14.7102 11.6808 21.553L4.80386 26.1889C2.41315 27.8165 0.915283 30.5218 0.915283 33.4141V74.0146C0.915283 78.8632 2.45517 83.8033 5.19513 87.8032L11.8998 97.6869H44.803L51.3817 87.8032C54.1221 83.8027 55.5365 78.8632 55.5365 74.0146V33.4141C55.536 30.5218 54.1573 27.8165 51.7666 26.1889ZM37.6997 27.3102H18.9974C17.5326 27.3102 16.9475 25.3276 18.1576 24.5015L18.3004 24.3592C21.2757 22.3335 24.7509 21.2358 28.3506 21.2358C31.9498 21.2358 35.4251 22.3019 38.4003 24.3276L38.5395 24.5067C39.7495 25.3323 39.165 27.3102 37.6997 27.3102Z" fill="#E5DCDF"/>
<path d="M181.085 167.622H156.915V197.54H181.085V167.622Z" fill="#F4D7C3"/>
<path d="M63.9114 167.622H39.7412V197.54H63.9114V167.622Z" fill="#F4D7C3"/>
<path d="M63.6766 108.191C50.0215 109.767 39.2549 121.191 39.2549 135.297V169.114H63.414V198H156.899V169.114H181.059V135.297C181.059 121.191 170.292 109.767 157.162 108.191H63.6766Z" fill="#AFC2D0"/>
<path d="M174.189 178.321H156.775V187.262H174.189V178.321Z" fill="#FCF5F0"/>
<path d="M77.6338 62.2672C82.0124 62.2672 85.5948 58.6848 85.5948 54.3063V46.6294C85.5948 42.2508 82.0124 38.6685 77.6338 38.6685C73.2552 38.6685 69.6729 42.2508 69.6729 46.6294V54.3057C69.6729 58.6848 73.2552 62.2672 77.6338 62.2672Z" fill="#F4BBA2"/>
<path d="M143.624 62.2672C139.246 62.2672 135.663 58.6848 135.663 54.3063V46.6294C135.663 42.2508 139.246 38.6685 143.624 38.6685C148.003 38.6685 151.585 42.2508 151.585 46.6294V54.3057C151.586 58.6848 148.003 62.2672 143.624 62.2672Z" fill="#F4BBA2"/>
<path d="M116.185 123.897H105.506C99.3595 123.897 94.377 118.914 94.377 112.768V57.5176H127.315V112.767C127.314 118.914 122.332 123.897 116.185 123.897Z" fill="#F4D7C3"/>
<path d="M142.995 96.8993C157.12 96.8993 159.276 41.278 159.276 27.1523C159.276 13.0267 153.023 1.57568 138.898 1.57568C124.772 1.57568 113.321 13.0267 113.321 27.1523C113.321 41.278 128.869 96.8993 142.995 96.8993Z" fill="#75544E"/>
<path d="M144.391 62.4635C148.769 62.4635 152.352 58.8811 152.352 54.5025V46.8257C152.352 42.4471 148.769 38.8647 144.391 38.8647C140.012 38.8647 136.43 42.4471 136.43 46.8257V54.502C136.43 58.8811 140.012 62.4635 144.391 62.4635Z" fill="#F4BBA2"/>
<path d="M126.963 112.496V62.4985H93.8755V96.0241L126.963 112.496Z" fill="#F4BBA2"/>
<path d="M110.846 94.9582C92.3413 94.9582 77.2014 79.8183 77.2014 61.3139V29.8655C77.2014 13.473 90.6134 0.0610352 107.006 0.0610352H114.685C131.078 0.0610352 144.49 13.473 144.49 29.8655V61.3139C144.49 79.8183 129.35 94.9582 110.846 94.9582Z" fill="#F4D7C3"/>
<path d="M110.846 68.9776C108.33 68.9776 106.272 66.9193 106.272 64.4036V57.5534C106.272 55.0377 108.33 52.9795 110.846 52.9795C113.361 52.9795 115.42 55.0377 115.42 57.5534V64.4036C115.419 66.9193 113.361 68.9776 110.846 68.9776Z" fill="#F4BBA2"/>
<path d="M110.846 80.606C107.54 80.606 104.442 79.3272 102.121 77.0063L102.863 76.2637C104.986 78.3871 107.821 79.5561 110.846 79.5561C113.87 79.5561 116.705 78.3871 118.828 76.2637L119.571 77.0063C117.249 79.3272 114.151 80.606 110.846 80.606Z" fill="#3A2F32"/>
<path d="M95.5235 50.4674C94.2205 50.4674 93.1543 49.4013 93.1543 48.0983V45.7979C93.1543 44.4949 94.2205 43.4287 95.5235 43.4287C96.8265 43.4287 97.8926 44.4949 97.8926 45.7979V48.0983C97.8926 49.4013 96.8265 50.4674 95.5235 50.4674Z" fill="#3A2F32"/>
<path d="M126.168 50.4674C127.471 50.4674 128.537 49.4013 128.537 48.0983V45.7979C128.537 44.4949 127.471 43.4287 126.168 43.4287C124.865 43.4287 123.799 44.4949 123.799 45.7979V48.0983C123.799 49.4013 124.865 50.4674 126.168 50.4674Z" fill="#3A2F32"/>
<path d="M114.992 0H107.253C90.7324 0 77.0823 13.0207 77.0823 29.5056V38.3395C123.661 37.5299 124.06 15.7592 124.06 15.7592C124.06 15.7592 124.719 34.7945 144.833 38.3379V29.5056C144.833 13.0207 131.513 0 114.992 0Z" fill="#7C5952"/>
<path d="M50.9546 35.5062V71.4776C50.9546 77.0426 49.2745 82.4784 46.1348 87.0734L42.3544 92.6059H14.3477L10.5673 87.0734C7.42714 82.4784 5.74756 77.0426 5.74756 71.4776V35.5062C5.74756 35.0467 6.0548 34.6439 6.49807 34.5225L14.6801 32.2805C23.628 29.8288 33.07 29.8283 42.0178 32.2794L50.2046 34.522C50.6473 34.6439 50.9546 35.0467 50.9546 35.5062Z" fill="#D64C52"/>
<path d="M44.5409 43.8794H12.1619V74.9633H44.5409V43.8794Z" fill="white"/>
<path d="M30.3516 92.605H26.3506V105.536H30.3516V92.605Z" fill="url(#paint0_linear_226_16488)"/>
<path d="M118.087 154.173L132.008 127.136L146.387 153.932C152.074 164.529 144.463 177.374 132.436 177.477C120.41 177.579 112.582 164.865 118.087 154.173Z" fill="#6DD98C"/>
<path d="M127.71 169.482L124.888 165.326L125.636 164.817L127.751 167.932L138.025 154.399L138.746 154.946L127.71 169.482Z" fill="#FCF5F0"/>
<path d="M132.41 174.381C125.16 174.443 119.211 168.594 119.149 161.344C119.087 154.093 124.936 148.144 132.186 148.082C139.437 148.021 145.386 153.869 145.448 161.12C145.509 168.37 139.661 174.319 132.41 174.381ZM132.194 148.987C125.442 149.045 119.996 154.585 120.054 161.336C120.111 168.088 125.651 173.534 132.403 173.476C139.154 173.419 144.6 167.879 144.543 161.128C144.485 154.376 138.946 148.93 132.194 148.987Z" fill="#FCF5F0"/>
<defs>
<linearGradient id="paint0_linear_226_16488" x1="29.3418" y1="172.876" x2="27.6936" y2="50.0871" gradientUnits="userSpaceOnUse">
<stop stop-color="#F38572"/>
<stop offset="0.4131" stop-color="#E2605F"/>
<stop offset="0.7824" stop-color="#D64551"/>
<stop offset="1" stop-color="#D23B4C"/>
</linearGradient>
</defs>
</svg>
