<svg width="375" height="269" viewBox="0 0 375 269" fill="none" xmlns="http://www.w3.org/2000/svg">
<circle cx="187.5" cy="-46.5" r="288.5" fill="url(#paint0_linear_323_4368)"/>
<path d="M244.114 148.211C240.737 147.364 238.694 143.913 239.549 140.504L250.279 97.7639L262.293 101.686L251.563 144.427C250.922 146.983 247.491 149.059 244.114 148.211Z" fill="#E75D65"/>
<path d="M262.507 100.834L250.279 97.7639L245.91 115.165L258.138 118.235L262.507 100.834Z" fill="#E5DCDF"/>
<path d="M266.157 96.2504L249.226 92.0001L246.156 104.228L263.087 108.479L266.157 96.2504Z" fill="#6E6075"/>
<path d="M257.43 121.057L251.316 119.522L247.184 135.983L253.298 137.518L257.43 121.057Z" fill="#FCF5F0"/>
<path d="M256.84 123.408L250.726 121.874L250.608 122.344L256.722 123.879L256.84 123.408Z" fill="#3A2F32"/>
<path d="M251.577 92.5904L251.107 92.4723L248.037 104.7L248.508 104.818L251.577 92.5904Z" fill="#FCF5F0"/>
<path d="M253.929 93.1808L253.459 93.0627L250.389 105.291L250.859 105.409L253.929 93.1808Z" fill="#FCF5F0"/>
<path d="M256.751 93.8891L256.28 93.771L253.211 105.999L253.681 106.117L256.751 93.8891Z" fill="#FCF5F0"/>
<path d="M259.102 94.4795L258.632 94.3615L255.562 106.59L256.033 106.708L259.102 94.4795Z" fill="#FCF5F0"/>
<path d="M261.856 95.128L261.385 95.0099L258.306 107.274L258.777 107.392L261.856 95.128Z" fill="#FCF5F0"/>
<path d="M264.276 95.7782L263.806 95.6602L260.736 107.888L261.206 108.006L264.276 95.7782Z" fill="#FCF5F0"/>
<path d="M235.269 240.42L141.756 258.635C138.673 259.235 135.686 257.215 135.084 254.122L111.091 130.942C110.488 127.849 112.499 124.856 115.581 124.255L209.095 106.041C212.177 105.44 215.164 107.461 215.767 110.553L239.76 233.733C240.362 236.826 238.352 239.82 235.269 240.42Z" fill="#517B98"/>
<path d="M203.689 107.091L121.105 123.177L145.182 246.786L227.766 230.7L203.689 107.091Z" fill="#FCF5F0"/>
<path d="M177.599 182L142 188.468L142.123 189.146L177.722 182.678L177.599 182Z" fill="#3A2F32"/>
<path d="M178.277 185.729L142.678 192.197L142.801 192.875L178.4 186.408L178.277 185.729Z" fill="#3A2F32"/>
<path d="M170.005 163.961C168.623 160.956 165.385 159.338 162.149 159.969L158.282 160.722L158.013 159.339C160.49 157.632 161.996 154.538 161.388 151.417L160.594 147.34C159.776 143.142 155.668 140.436 151.484 141.251L151.492 141.249C147.308 142.064 144.545 146.108 145.363 150.307L146.157 154.383C146.765 157.505 148.983 159.874 151.92 160.525L152.19 161.908L148.559 162.616C145.323 163.246 142.928 165.96 142.776 169.264L142.167 182.189L175.42 175.712L170.005 163.961Z" fill="#B8B1BB"/>
<path d="M185.836 193.054L199.369 147.747L228.917 184.662C240.603 199.262 232.653 221.071 214.346 224.637C196.038 228.203 180.484 210.972 185.836 193.054Z" fill="#E75D65"/>
<path d="M204.863 213.745L199.377 208.186L200.374 207.196L204.485 211.361L216.3 187.746L217.555 188.379L204.863 213.745Z" fill="#FCF5F0"/>
<path d="M213.424 219.908C202.386 222.058 191.652 214.797 189.495 203.723C187.338 192.648 194.562 181.889 205.6 179.74C216.638 177.59 227.373 184.85 229.53 195.925C231.687 206.999 224.462 217.758 213.424 219.908ZM205.869 181.122C195.591 183.124 188.863 193.142 190.872 203.455C192.881 213.767 202.877 220.528 213.155 218.526C223.433 216.524 230.161 206.506 228.152 196.193C226.144 185.881 216.147 179.12 205.869 181.122Z" fill="#FCF5F0"/>
<path d="M174.67 108.513L168.106 109.792C168.106 109.792 168.096 109.732 168.094 109.724C167.386 106.086 163.869 103.689 160.244 104.395C156.619 105.101 154.261 108.654 154.969 112.291C154.971 112.3 154.982 112.348 154.982 112.348L148.418 113.627L146.693 127.709L181.554 120.919L174.67 108.513ZM161.964 113.227C160.718 113.469 159.506 112.65 159.263 111.4C159.019 110.15 159.835 108.935 161.081 108.693C162.327 108.45 163.538 109.27 163.782 110.52C164.026 111.77 163.21 112.984 161.964 113.227Z" fill="#B8B1BB"/>
<path d="M147.223 122.671L146.694 127.709L181.554 120.919L179.172 116.448L147.223 122.671Z" fill="#6E6075"/>
<defs>
<linearGradient id="paint0_linear_323_4368" x1="188.269" y1="-667.508" x2="184.816" y2="241.99" gradientUnits="userSpaceOnUse">
<stop stop-color="#BBD7EB"/>
<stop offset="1" stop-color="#EDF7FE"/>
</linearGradient>
</defs>
</svg>
